# xmcd
# 
# Track frame offsets:
#     150
#     13937
#     27727
#     40220
#     53539
#     65227
#     75722
#     87435
#     100287
#     109757
#     124297
#     136945
#     152105
#     164207
#     179745
#     191897
#     206662
#     219225
#     232200
#     241432
#     254867
#     268837
#     282170
#     299867
#     312197
# 
# Disc length: 4430
# 
# Revision: 5
# Processed by: cddbd v1.5.2PL0 Copyright (c) Steve Scherf et al.
# Submitted via: fre:ac v1.0.17
# 
DISCID=9c114c19
DTITLE=Various Artist - Mega Soul
DYEAR=1998
DGENRE=Soul
TTITLE0=Maceo Parker and All The Kings Men - Thank U For Letting Me Be Myself Again
TTITLE1=James Brown - It's Too Funky In Here
TTITLE2=Platters - Crying In The Chapel
TTITLE3=Percy Sledge - My Special Prayer
TTITLE4=Aaron Neville - Tell It Like It Is
TTITLE5=Instant Funk - I Got My Mind Made Up
TTITLE6=First Choice - Let No Man Put Asunder
TTITLE7=Salsoul Orchestra - Runaway
TTITLE8=Lydia Murdock - Love On The Line
TTITLE9=Move As One - Ain't Getting Enough
TTITLE10=Funkadelic - Not Just Knee Deep
TTITLE11=Rimshots - 7654321 Blow Your Whistle
TTITLE12=Ripple - I Don't Know What It Is But I Am Sure Is Funky
TTITLE13=Ann Sexton - Colour My World Blue
TTITLE14=Dixie Cups - Chapel Of Love
TTITLE15=Detroit Emeralds - Feel The Need In Me
TTITLE16=Rose Royce - Wishing On A Star
TTITLE17=Cymande - Fug
TTITLE18=Bobby Patterson - It Takes Two To Do Wrong
TTITLE19=Brook Benton - A Rainy Night In Georgia
TTITLE20=Mari Wilson - Cry Me A River
TTITLE21=Barry White - Ghetto Letto
TTITLE22=Ike and Tina Turner - River Deep Mountain High
TTITLE23=Platters - Only You
TTITLE24=Bobby Womack - That's The Way I Feel About Cha
EXTD=YEAR: 1998
EXTT0=
EXTT1=
EXTT2=
EXTT3=
EXTT4=
EXTT5=
EXTT6=
EXTT7=
EXTT8=
EXTT9=
EXTT10=
EXTT11=
EXTT12=
EXTT13=
EXTT14=
EXTT15=
EXTT16=
EXTT17=
EXTT18=
EXTT19=
EXTT20=
EXTT21=
EXTT22=
EXTT23=
EXTT24=
PLAYORDER=
